# xmcd CD database file
#
# Track frame offsets:
#	150
#	11033
#	19996
#	32811
#	42607
#	55932
#	72340
#	92963
#	108089
#	121860
#	134536
#
# Disc length: 2142 seconds
#
# Revision: 0
# Processed by: cddbd v1.5.1PL0 Copyright (c) Steve Scherf et al.
# Submitted via: CDex 1.51
#
DISCID=9a085c0b
DTITLE=Chris Con Carne - Concarnage
DYEAR=2002
DGENRE=Blues
TTITLE0=Burden of Proof
TTITLE1=Don't You Cry When the Train Rolls By
TTITLE2=Woman in Red
TTITLE3=Rollin Rhythm
TTITLE4=Soledad
TTITLE5=Hard Time Killin Floor Blues
TTITLE6=Train I Ride she Sixteen Coaches Long
TTITLE7=R.L.'s Riff
TTITLE8=Wretched Mind
TTITLE9=Math Rock
TTITLE10=Preachin Blues
EXTD=YEAR: 2002
EXTT0=
EXTT1=
EXTT2=
EXTT3=
EXTT4=
EXTT5=
EXTT6=
EXTT7=
EXTT8=
EXTT9=
EXTT10=
PLAYORDER=
